<?xml version="1.0" standalone="no"?><!DOCTYPE svg PUBLIC "-//W3C//DTD SVG 1.1//EN" "http://www.w3.org/Graphics/SVG/1.1/DTD/svg11.dtd"><svg t="1513182908808" class="icon" style="" viewBox="0 0 1024 1024" version="1.1" xmlns="http://www.w3.org/2000/svg" p-id="1423" xmlns:xlink="http://www.w3.org/1999/xlink" width="32" height="32"><defs><style type="text/css"></style></defs><path d="M782.208 483.552L369.76 119.456c-25.6-22.752-62.592-5.696-62.592 28.448v199.104H48.32c-17.056 0-34.144 14.208-34.144 34.144v267.392c0 17.056 14.208 34.144 34.144 34.144h258.848v199.104c0 34.144 39.808 51.2 62.592 28.448l412.448-369.792c17.056-14.208 17.056-42.656 0-56.896z m28.448 457.952h-213.344c-28.448 0-51.2-22.752-51.2-51.2s22.752-51.2 51.2-51.2h213.344c51.2 0 93.856-42.656 93.856-93.856V281.6c0-51.2-42.656-93.856-93.856-93.856h-213.344c-28.448 0-51.2-22.752-51.2-51.2s22.752-54.048 51.2-54.048h213.344c108.096 0 199.104 88.192 199.104 199.104v460.8c0 108.096-88.192 199.104-199.104 199.104z" p-id="1424"></path></svg>