<?xml version="1.0" standalone="no"?><!DOCTYPE svg PUBLIC "-//W3C//DTD SVG 1.1//EN" "http://www.w3.org/Graphics/SVG/1.1/DTD/svg11.dtd"><svg t="1515336175915" class="icon" style="" viewBox="0 0 1024 1024" version="1.1" xmlns="http://www.w3.org/2000/svg" p-id="2400" xmlns:xlink="http://www.w3.org/1999/xlink" width="32" height="32"><defs><style type="text/css"></style></defs><path d="M810.666667 931.555556h-597.333334c-31.288889 0-56.888889-25.6-56.888889-56.888889v-725.333334c0-31.288889 25.6-56.888889 56.888889-56.888889h597.333334c31.288889 0 56.888889 25.6 56.888889 56.888889v725.333334c0 31.288889-25.6 56.888889-56.888889 56.888889z" fill="#5CBAEA" p-id="2401"></path><path d="M270.222222 931.555556h-56.888889c-31.288889 0-56.888889-25.6-56.888889-56.888889v-725.333334c0-31.288889 25.6-56.888889 56.888889-56.888889h56.888889v839.111112z" fill="#FFFFFF" p-id="2402"></path><path d="M810.666667 64h-597.333334c-46.933333 0-85.333333 38.4-85.333333 85.333333v725.333334c0 46.933333 38.4 85.333333 85.333333 85.333333h597.333334c46.933333 0 85.333333-38.4 85.333333-85.333333v-725.333334c0-46.933333-38.4-85.333333-85.333333-85.333333z m-597.333334 839.111111c-15.644444 0-28.444444-12.8-28.444444-28.444444v-725.333334c0-15.644444 12.8-28.444444 28.444444-28.444444h28.444445v782.222222h-28.444445z m625.777778-28.444444c0 15.644444-12.8 28.444444-28.444444 28.444444h-512v-782.222222h512c15.644444 0 28.444444 12.8 28.444444 28.444444v725.333334z" fill="#194F82" p-id="2403"></path><path d="M661.333333 817.777778h-56.888889c-7.822222 0-14.222222-6.4-14.222222-14.222222v-597.333334c0-7.822222 6.4-14.222222 14.222222-14.222222h56.888889c7.822222 0 14.222222 6.4 14.222223 14.222222v597.333334c0 7.822222-6.4 14.222222-14.222223 14.222222z" fill="#FFC44F" p-id="2404"></path><path d="M675.555556 296.533333h-85.333334v-61.866666c0-7.822222 6.4-14.222222 14.222222-14.222223h56.888889c7.822222 0 14.222222 6.4 14.222223 14.222223v61.866666z" fill="#FFFFFF" p-id="2405"></path><path d="M776.533333 282.311111c-4.266667-2.844444-9.955556-4.977778-15.644444-4.977778h-56.888889v-71.111111c0-23.466667-19.2-42.666667-42.666667-42.666666h-56.888889c-23.466667 0-42.666667 19.2-42.666666 42.666666v597.333334c0 23.466667 19.2 42.666667 42.666666 42.666666h56.888889c23.466667 0 42.666667-19.2 42.666667-42.666666v-469.333334h28.444444v85.333334c0 15.644444 12.8 28.444444 28.444445 28.444444s28.444444-12.8 28.444444-28.444444v-113.777778c0-9.955556-4.977778-18.488889-12.8-23.466667z m-157.866666-61.866667h28.444444v56.888889h-28.444444v-56.888889z m28.444444 568.888889h-28.444444v-455.111111h28.444444v455.111111z" fill="#194F82" p-id="2406"></path></svg>